<svg width="319" height="113" viewBox="0 0 319 113" fill="none" xmlns="http://www.w3.org/2000/svg">
<g clip-path="url(#clip0)">
<path d="M3.30855 1.81129L5.16477 22.9769C5.21781 23.4857 5.2586 24.0637 5.28308 24.7068C5.30756 25.3499 5.33611 25.9564 5.36467 26.5181C5.39323 27.1897 5.41771 27.8735 5.44626 28.5532H5.89094C5.94397 27.8532 6.00925 27.1693 6.09084 26.5181C6.14387 25.9564 6.21323 25.354 6.29482 24.7068C6.37641 24.0596 6.44168 23.4857 6.49472 22.9769L9.3178 1.81129H13.3525L16.0165 22.9769C16.0695 23.4613 16.1348 24.023 16.2164 24.6702C16.298 25.3173 16.3633 25.9279 16.4204 26.5181C16.4979 27.1897 16.5795 27.8735 16.6611 28.5532H17.1057C17.1302 27.8532 17.1588 27.1693 17.1833 26.5181C17.2118 25.9564 17.2404 25.354 17.2649 24.7068C17.2893 24.0596 17.3342 23.4857 17.3872 22.9769L19.2843 1.81129H22.3888L19.3618 30.7919H14.4418L11.9002 9.50011C11.8186 8.71861 11.7574 8.00224 11.7207 7.34692C11.684 6.6916 11.6432 6.12583 11.6187 5.67402V4.14358H11.0924V5.67402C11.0679 6.1299 11.0312 6.68753 10.9945 7.34692C10.9578 8.00631 10.8803 8.71861 10.7701 9.50011L8.02865 30.7919H3.10457L0.199902 1.81129H3.30855Z" fill="#1D1D1B"/>
<path d="M26.6235 16.904C26.604 15.6749 26.8157 14.453 27.2476 13.3018C27.6402 12.2733 28.2527 11.3425 29.0425 10.5742C29.8323 9.80586 30.7804 9.21849 31.8209 8.85293C32.9998 8.43875 34.2427 8.23484 35.4925 8.25052C38.234 8.25052 40.3989 9.01574 41.9872 10.5462C43.5755 12.0766 44.3683 14.1823 44.3656 16.8633V22.5373C44.385 23.7713 44.1805 24.9986 43.7618 26.1599C43.3964 27.1928 42.8008 28.1294 42.0198 28.8992C41.2151 29.6595 40.2587 30.242 39.2131 30.6087C38.0171 31.0204 36.7574 31.2175 35.4925 31.1908C34.2425 31.2085 32.9993 31.0046 31.8209 30.5884C30.7776 30.2222 29.8281 29.6312 29.0398 28.8573C28.2515 28.0835 27.6438 27.1458 27.2599 26.1111C26.8304 24.9662 26.6187 23.7515 26.6357 22.5292L26.6235 16.904ZM30.2543 22.5373C30.2543 24.2306 30.718 25.5588 31.6454 26.5222C32.5729 27.4855 33.8552 27.9685 35.4925 27.9712C37.1026 27.9712 38.3795 27.4882 39.3232 26.5222C40.267 25.5561 40.7375 24.2279 40.7348 22.5373V16.904C40.7348 15.2162 40.2643 13.8879 39.3232 12.9192C38.3822 11.9504 37.1053 11.4674 35.4925 11.4701C33.877 11.4701 32.5987 11.9531 31.6577 12.9192C30.7166 13.8852 30.2461 15.2135 30.2461 16.904L30.2543 22.5373Z" fill="#1D1D1B"/>
<path d="M52.1209 8.65349H55.5478V12.4755H55.8905C56.2004 11.2076 56.969 10.0986 58.0486 9.36172C59.2604 8.5773 60.6846 8.18368 62.1282 8.23425C64.4644 8.23425 66.3003 8.96555 67.6356 10.4281C68.971 11.8907 69.636 13.8961 69.6306 16.4441V17.6937H65.9997V16.8796C65.9997 15.1375 65.5632 13.7889 64.6902 12.8337C63.8171 11.8785 62.5729 11.4023 60.9573 11.405C60.2578 11.372 59.559 11.4857 58.9062 11.7388C58.2534 11.9919 57.6611 12.3788 57.1674 12.8744C56.2237 13.854 55.7531 15.1891 55.7559 16.8796V30.7919H52.125L52.1209 8.65349Z" fill="#1D1D1B"/>
<path d="M79.1891 1.40833V17.9094H83.5461L90.3223 8.65348H94.4753L86.6098 19.3584L94.5977 30.7919H90.3631L83.5828 21.129H79.1891V30.7919H75.5582V1.40833H79.1891Z" fill="#1D1D1B"/>
<path d="M99.84 30.7919V27.4909H107.909V11.9545H100.852V8.65348H111.54V27.4909H118.194V30.7919H99.84ZM108.717 -5.84219e-06H109.533C110.231 -0.0311703 110.913 0.214683 111.43 0.683807C111.667 0.910163 111.852 1.18383 111.975 1.48686C112.098 1.78989 112.156 2.11545 112.144 2.44218C112.159 2.76618 112.102 3.08945 111.976 3.38861C111.85 3.68778 111.66 3.95537 111.418 4.17206C110.891 4.62009 110.213 4.85144 109.521 4.81924H108.705C108.017 4.85151 107.341 4.62819 106.808 4.19242C106.565 3.97292 106.374 3.70159 106.251 3.39859C106.127 3.09558 106.074 2.76868 106.094 2.44218C106.082 2.11251 106.14 1.78406 106.266 1.47874C106.391 1.17342 106.58 0.898249 106.82 0.671596C107.339 0.207284 108.021 -0.0340434 108.717 -5.84219e-06Z" fill="#1D1D1B"/>
<path d="M123.763 30.7919V8.65349H127.19V12.4755H127.516C127.812 11.2123 128.566 10.103 129.633 9.36173C130.811 8.59059 132.199 8.2037 133.607 8.2546C134.636 8.24013 135.657 8.43254 136.609 8.82038C137.483 9.17567 138.269 9.71749 138.91 10.4078C139.558 11.1169 140.059 11.9469 140.383 12.85C140.746 13.877 140.925 14.9602 140.909 16.0493V30.7838H137.278V16.6639C137.278 14.9706 136.846 13.66 135.985 12.7197C135.124 11.7795 133.945 11.3114 132.395 11.3114C131.713 11.2796 131.032 11.3981 130.401 11.6583C129.77 11.9186 129.204 12.3144 128.744 12.8174C127.844 13.8269 127.394 15.1836 127.394 16.8877V30.7919H123.763Z" fill="#1D1D1B"/>
<path d="M147.363 16.6883C147.346 15.4996 147.522 14.3161 147.885 13.1837C148.197 12.2029 148.713 11.2986 149.399 10.5299C150.065 9.79791 150.884 9.22002 151.798 8.83665C152.796 8.42539 153.867 8.22046 154.947 8.23424C156.403 8.18984 157.838 8.59032 159.059 9.38207C160.199 10.1619 161.016 11.3275 161.36 12.6627H161.642V8.65348H165.069V29.1801C165.069 31.7824 164.303 33.808 162.772 35.257C161.241 36.7061 159.089 37.436 156.318 37.4469H150.872V34.1296H156.318C157.931 34.1296 159.187 33.7008 160.087 32.8433C160.988 31.9859 161.439 30.7648 161.442 29.1801V28.366L161.601 24.3405H161.36C161.016 25.6757 160.199 26.8413 159.059 27.6211C157.838 28.4129 156.403 28.8134 154.947 28.769C153.874 28.7866 152.808 28.5814 151.818 28.1666C150.914 27.7782 150.103 27.2024 149.44 26.4774C148.752 25.705 148.23 24.8005 147.906 23.8195C147.53 22.691 147.347 21.5079 147.363 20.319V16.6883ZM151.072 20.3109C151.072 21.9715 151.535 23.2727 152.463 24.2143C153.39 25.1559 154.662 25.6321 156.277 25.643C157.89 25.643 159.153 25.1735 160.067 24.2346C160.981 23.2958 161.439 21.9946 161.442 20.3312V16.6883C161.442 15.0249 160.984 13.7224 160.067 12.7808C159.151 11.8392 157.887 11.3779 156.277 11.3969C154.662 11.3969 153.39 11.8663 152.463 12.8052C151.535 13.7441 151.072 15.0384 151.072 16.6883V20.3109Z" fill="#1D1D1B"/>
<path d="M195.245 14.1688V10.8677H201.699V7.04164C201.699 5.26969 202.243 3.8885 203.331 2.89806C204.419 1.90762 205.939 1.41104 207.892 1.40833H214.387V4.70935H207.913C206.191 4.70935 205.33 5.48678 205.33 7.04164V10.8677H214.407V14.1688H205.33V30.7919H201.699V14.1688H195.245Z" fill="#1D1D1B"/>
<path d="M220.257 16.904C220.238 15.6749 220.45 14.453 220.882 13.3018C221.271 12.2742 221.881 11.3439 222.668 10.5755C223.455 9.80713 224.4 9.21928 225.439 8.85292C226.618 8.43907 227.86 8.23517 229.11 8.25052C231.852 8.25052 234.017 9.01573 235.605 10.5462C237.193 12.0766 237.986 14.1823 237.983 16.8633V22.5373C238.003 23.7713 237.798 24.9986 237.38 26.1599C237.008 27.1866 236.408 28.1161 235.625 28.8789C234.821 29.6383 233.867 30.2207 232.823 30.5884C231.63 31.0052 230.374 31.2091 229.11 31.1908C227.86 31.2082 226.617 31.0042 225.439 30.5884C224.395 30.223 223.446 29.6321 222.658 28.8582C221.871 28.0842 221.264 27.1461 220.882 26.111C220.452 24.9662 220.241 23.7515 220.257 22.5292V16.904ZM223.884 22.5373C223.884 24.2306 224.349 25.5588 225.279 26.5222C226.21 27.4855 227.493 27.9685 229.131 27.9712C230.762 27.9712 232.023 27.4909 232.961 26.5222C233.9 25.5534 234.373 24.2306 234.373 22.5373V16.904C234.373 15.2162 233.902 13.8879 232.961 12.9192C232.023 11.9545 230.742 11.4701 229.131 11.4701C227.519 11.4701 226.238 11.9545 225.3 12.9192C224.362 13.8838 223.884 15.2148 223.884 16.904V22.5373Z" fill="#1D1D1B"/>
<path d="M245.751 8.65349H249.178V12.4755H249.5C249.815 11.2044 250.591 10.095 251.678 9.36172C252.891 8.57827 254.315 8.18474 255.758 8.23425C258.1 8.23425 259.936 8.96555 261.266 10.4281C262.595 11.8907 263.26 13.8961 263.26 16.4441V17.6937H259.63V16.8796C259.63 15.1375 259.193 13.7889 258.32 12.8337C257.447 11.8785 256.196 11.4104 254.567 11.4294C253.867 11.3967 253.169 11.5105 252.516 11.7636C251.863 12.0167 251.271 12.4034 250.777 12.8988C249.836 13.8784 249.365 15.2135 249.365 16.904V30.7919H245.735L245.751 8.65349Z" fill="#1D1D1B"/>
<path d="M0 112.198L15.5025 54.2369H31.625L46.7971 112.198H34.5297L31.4659 98.9086H15.2495L12.1817 112.194L0 112.198ZM29.2058 89.498L24.7672 70.4164C24.6081 69.6023 24.4449 68.7435 24.2858 67.8033C24.1267 66.863 23.988 65.9635 23.8779 65.1046C23.7677 64.2458 23.6617 63.2527 23.5597 62.2758H23.0742C22.9681 63.2418 22.8321 64.1807 22.6662 65.0924C22.5602 65.9526 22.4391 66.8522 22.3032 67.791C22.1817 68.6755 22.0087 69.5521 21.785 70.4164L17.428 89.498H29.2058Z" fill="#1D1D1B"/>
<path d="M65.3837 54.2369V100.944H89.1841V112.214H53.2836V54.2369H65.3837Z" fill="#1D1D1B"/>
<path d="M86.8342 54.2369H129.597V65.5076H114.265V112.198H102.165V65.5076H86.8342V54.2369Z" fill="#1D1D1B"/>
<path d="M135.851 54.2369H155.216C158.121 54.1956 161.013 54.6175 163.784 55.4865C166.15 56.2269 168.344 57.4308 170.238 59.0277C172.008 60.5502 173.414 62.4485 174.354 64.5836C175.352 66.9087 175.847 69.4178 175.806 71.9468C175.806 75.7051 174.891 78.9247 173.061 81.6057C171.178 84.3303 168.544 86.4513 165.477 87.7112L176.614 112.186H163.69L153.85 89.6446H147.877V112.186H135.851V54.2369ZM147.873 80.4009H155.216C157.852 80.4009 159.923 79.6899 161.43 78.268C162.936 76.8461 163.688 74.9277 163.686 72.5126C163.686 69.989 162.92 67.9891 161.389 66.513C159.858 65.0368 157.802 64.3028 155.221 64.3109H147.877L147.873 80.4009Z" fill="#1D1D1B"/>
<path d="M182.892 71.4666C182.854 68.9233 183.349 66.4001 184.345 64.0586C185.294 61.8909 186.704 59.9549 188.477 58.3846C190.347 56.7465 192.528 55.5007 194.89 54.7213C200.325 53.0063 206.158 53.0063 211.592 54.7213C213.955 55.5007 216.136 56.7465 218.005 58.3846C219.772 59.9567 221.175 61.8927 222.118 64.0586C223.115 66.3995 223.61 68.9231 223.57 71.4666V94.8912C223.6 97.4229 223.093 99.9324 222.081 102.254C221.118 104.427 219.7 106.37 217.924 107.953C216.049 109.594 213.87 110.852 211.511 111.657C208.851 112.569 206.054 113.018 203.241 112.984C200.406 113.021 197.583 112.586 194.89 111.698C192.528 110.918 190.347 109.672 188.477 108.034C186.705 106.457 185.3 104.512 184.361 102.336C183.368 99.9806 182.874 97.4461 182.909 94.8912L182.892 71.4666ZM195.005 94.8912C195.005 97.2004 195.743 99.0375 197.22 100.402C198.697 101.767 200.701 102.452 203.233 102.458C205.757 102.458 207.76 101.773 209.243 100.402C210.725 99.0321 211.465 97.195 211.462 94.8912V71.4666C211.462 69.1573 210.722 67.3189 209.243 65.9513C207.763 64.5837 205.76 63.9053 203.233 63.9161C200.704 63.9161 198.699 64.5945 197.22 65.9513C195.74 67.3081 195.002 69.1465 195.005 71.4666V94.8912Z" fill="#1D1D1B"/>
<path d="M228.233 54.2369H240.496L250.259 96.0146C250.486 96.8759 250.662 97.7498 250.785 98.6318C250.92 99.5721 251.038 100.443 251.148 101.249C251.254 102.214 251.36 103.182 251.47 104.147H251.956C252.062 103.182 252.197 102.214 252.364 101.249C252.47 100.435 252.606 99.5626 252.772 98.6318C252.935 97.6956 253.098 96.8205 253.257 96.0146L262.857 54.2369H275.042L259.54 112.198H243.401L228.233 54.2369Z" fill="#1D1D1B"/>
<path d="M282.308 112.198V54.2369H319.024V64.718H294.392V77.2749H316.169V87.7396H294.384V101.75H318.992V112.214L282.308 112.198Z" fill="#1D1D1B"/>
</g>
<defs>
<clipPath id="clip0">
<rect width="319" height="113" fill="white"/>
</clipPath>
</defs>
</svg>
